<?xml version="1.0" standalone="no"?>
<!DOCTYPE svg PUBLIC "-//W3C//DTD SVG 20010904//EN"
 "http://www.w3.org/TR/2001/REC-SVG-20010904/DTD/svg10.dtd">
<svg version="1.0" xmlns="http://www.w3.org/2000/svg"
 width="800.000000pt" height="800.000000pt" viewBox="0 0 800.000000 800.000000"
 preserveAspectRatio="xMidYMid meet">

<g transform="translate(0.000000,800.000000) scale(0.100000,-0.100000)"
fill="#000000" stroke="none">
<path d="M3150 6535 c-342 -73 -593 -322 -691 -685 -20 -73 -23 -109 -23 -255
0 -144 3 -182 22 -251 67 -248 202 -455 477 -730 88 -88 216 -210 285 -270
229 -199 761 -649 783 -661 30 -17 96 -16 129 1 26 14 467 385 773 650 476
415 692 698 776 1022 20 75 23 113 23 244 -1 133 -5 169 -27 251 -95 359 -353
614 -689 683 -152 31 -347 15 -482 -40 -141 -57 -311 -195 -396 -322 -19 -28
-38 -52 -41 -52 -4 0 -19 19 -34 43 -41 62 -171 193 -235 237 -75 51 -161 93
-245 120 -89 29 -305 37 -405 15z m260 -295 c213 -34 416 -239 504 -508 58
-176 253 -171 311 10 10 29 35 87 56 128 106 204 251 328 427 366 85 17 130
17 217 -1 211 -45 370 -193 445 -415 17 -49 23 -98 27 -196 5 -121 3 -139 -21
-225 -84 -291 -273 -502 -1024 -1138 l-284 -239 -301 256 c-704 596 -891 798
-987 1062 -128 349 22 741 331 866 99 40 191 51 299 34z"/>
<path d="M3125 3583 c-167 -21 -356 -97 -488 -197 l-58 -44 -44 47 c-56 60
-134 106 -212 126 -51 13 -120 15 -425 13 -357 -3 -363 -3 -394 -25 -67 -48
-64 8 -64 -1025 0 -868 1 -935 18 -967 9 -19 30 -44 45 -55 27 -20 42 -21 399
-24 318 -2 378 0 426 14 77 22 126 48 177 95 l43 40 114 -30 c152 -41 325 -75
488 -98 123 -16 218 -18 1030 -18 l895 0 98 27 c180 51 328 133 457 254 52 49
191 226 475 605 439 584 444 592 453 732 22 358 -369 597 -677 414 -46 -27
-288 -273 -503 -511 l-35 -39 -25 54 c-45 99 -149 193 -258 236 -40 15 -98 18
-490 23 l-445 5 -65 31 c-36 17 -90 51 -120 76 -158 128 -314 201 -499 233
-76 14 -241 18 -316 8z m320 -318 c99 -26 194 -76 304 -158 113 -85 163 -113
262 -149 62 -22 77 -23 506 -28 426 -5 443 -6 469 -26 70 -52 89 -117 55 -188
-17 -33 -33 -50 -65 -65 -41 -20 -57 -21 -608 -21 l-565 0 -33 -22 c-75 -51
-96 -119 -61 -190 12 -24 34 -52 49 -63 26 -19 45 -20 672 -23 622 -2 647 -2
711 18 121 36 100 17 674 630 153 163 221 228 247 238 100 38 213 -58 193
-164 -9 -51 -757 -1047 -849 -1131 -78 -72 -190 -133 -302 -165 l-79 -23 -835
0 c-870 0 -913 2 -1164 45 -60 11 -167 34 -237 51 l-129 32 2 576 3 575 84 73
c169 145 340 208 541 198 52 -2 122 -11 155 -20z m-1159 -61 c15 -11 37 -33
48 -48 21 -27 21 -39 24 -663 2 -627 2 -636 -18 -679 -16 -31 -33 -48 -64 -63
-39 -19 -60 -21 -289 -21 l-247 0 0 750 0 751 259 -3 c244 -3 261 -4 287 -24z"/>
</g>
</svg>
