<svg width="30" height="30" viewBox="0 0 30 30" fill="none" xmlns="http://www.w3.org/2000/svg">
<path d="M13.7505 2.5V10.5175C13.2434 10.4239 12.721 10.375 12.188 10.375C7.45905 10.375 3.62549 14.2085 3.62549 18.9375C3.62549 23.6665 7.45905 27.5 12.188 27.5C16.9169 27.5 20.7505 23.6665 20.7505 18.9375V14.267C22.0458 14.8174 23.4577 15.125 25.0006 15.125H26.2506V8.125H25.0006C22.6207 8.125 20.7505 6.20324 20.7505 3.75V2.5H13.7505ZM16.2505 5H18.36C18.8523 7.77511 20.9591 9.99509 23.7506 10.5114V12.5353C22.453 12.345 21.2816 11.8581 20.1959 11.1313L18.2505 9.82909V18.9375C18.2505 22.2858 15.5363 25 12.188 25C8.83976 25 6.12549 22.2858 6.12549 18.9375C6.12549 15.5893 8.83976 12.875 12.188 12.875C12.2929 12.875 12.3971 12.8776 12.5006 12.8829V14.8869C12.3974 14.879 12.2932 14.875 12.188 14.875C9.94434 14.875 8.12549 16.6939 8.12549 18.9375C8.12549 21.1811 9.94434 23 12.188 23C14.4316 23 16.2505 21.1811 16.2505 18.9375C16.2505 14.2918 16.249 9.64581 16.2505 5ZM10.6255 18.9375C10.6255 18.0745 11.325 17.375 12.188 17.375C13.0509 17.375 13.7505 18.0745 13.7505 18.9375C13.7505 19.8005 13.0509 20.5 12.188 20.5C11.325 20.5 10.6255 19.8005 10.6255 18.9375Z" fill="black"/>
</svg>
