<svg width="30" height="30" viewBox="0 0 30 30" fill="none" xmlns="http://www.w3.org/2000/svg">
<path d="M8.6756 6.24991C8.67514 7.2678 8.0576 8.18377 7.11418 8.56591C6.17075 8.94806 5.08984 8.72006 4.38112 7.98944C3.67241 7.2588 3.47744 6.17144 3.88812 5.24009C4.29882 4.30874 5.23317 3.71937 6.2506 3.74991C7.60194 3.79047 8.67621 4.89796 8.6756 6.24991ZM8.7506 10.5999H3.7506V26.2499H8.7506V10.5999ZM16.6506 10.5999H11.6756V26.2499H16.6006V18.0374C16.6006 13.4624 22.5631 13.0374 22.5631 18.0374V26.2499H27.5006V16.3374C27.5006 8.62491 18.6756 8.91241 16.6006 12.6999L16.6506 10.5999Z" fill="black"/>
</svg>
