<svg width="81" height="53" viewBox="0 0 81 53" fill="none" xmlns="http://www.w3.org/2000/svg">
<path d="M0.00222875 9.80202H1.35702V6.76374H3.17083C5.09383 6.76374 6.3127 5.25031 6.3127 3.72546C6.3127 2.20062 5.17405 0.643811 3.22431 0.643811H0V9.80202H0.00222875ZM1.35702 5.40325V2.0043H3.14409C4.30948 2.0043 4.9178 2.86488 4.9178 3.72546C4.9178 4.58604 4.29388 5.40325 3.14409 5.40325H1.35702ZM8.56326 9.93898L9.41669 7.78867H13.305L14.1718 9.93898L15.3907 9.41168L11.8277 0.641527H10.8517L7.28868 9.41168L8.56103 9.93898H8.56326ZM9.93142 6.45786L11.3397 2.90597L12.7747 6.45786H9.92919H9.93142ZM23.4905 9.93898L24.5868 9.1058L22.461 6.10861C23.4905 5.62239 24.072 4.62485 24.072 3.54284C24.072 2.00202 23.0827 0.641527 20.997 0.641527H18.0045V9.79974H19.3325V6.42818H20.9993L23.4905 9.93898ZM19.3325 5.09737V1.97463H20.9168C22.0956 1.97463 22.7039 2.70966 22.7039 3.57024C22.7039 4.43082 22.1223 5.09737 20.9168 5.09737H19.3325ZM27.6351 9.80202H29.0032V0.643811H27.6351V9.80202ZM35.2869 9.93898C36.6818 9.93898 38.1035 9.03731 38.1035 7.28876C38.1035 5.92827 37.2099 5.22063 35.4474 4.54039C34.4447 4.15233 33.7539 3.77796 33.7539 3.04065C33.7539 2.30334 34.4179 1.8331 35.1755 1.8331C35.8797 1.8331 36.5704 2.18007 37.0985 2.76216L37.9653 1.8194C37.1943 0.945127 36.1359 0.5 35.1622 0.5C33.7004 0.5 32.3857 1.49982 32.3857 3.13652C32.3857 4.27331 33.1032 5.03802 34.4447 5.56532C36.0022 6.1885 36.7331 6.49438 36.7331 7.34126C36.7331 8.18815 36.0557 8.6036 35.3115 8.6036C34.4714 8.6036 33.5511 8.13108 32.9005 7.16093L31.9646 8.00782C32.7645 9.28385 34.0503 9.9367 35.2825 9.9367" fill="white"/>
<path d="M78.9945 52.4886C79.9749 52.4886 80.9999 51.9978 80.9999 50.9136C80.9999 50.1374 80.4986 49.6238 79.351 49.3499C78.2814 49.076 78.1366 48.8591 78.1366 48.608C78.1366 48.2542 78.5043 48.083 78.9165 48.083C79.429 48.083 79.9638 48.3341 80.3203 48.7678L80.9777 48.0145C80.4763 47.4438 79.8078 47.1243 78.9388 47.1243C77.9138 47.1243 77.0448 47.7634 77.0448 48.6765C77.0448 49.5325 77.6798 49.9548 78.6603 50.2287C79.6073 50.4913 79.8969 50.5826 79.8969 50.9136C79.8969 51.313 79.4847 51.4842 79.0725 51.4842C78.4486 51.4842 77.9472 51.1418 77.5127 50.6054L76.7662 51.3016C77.3121 52.112 78.1255 52.4886 78.9945 52.4886ZM74.1926 46.2454H75.8749V44.522H74.1926V46.2454ZM74.4711 52.3859H75.5964V47.227H74.4711V52.3859ZM70.5828 52.3745H71.708V48.8591L73.5575 48.083L73.1787 47.1243L71.708 47.7406V47.2384H70.5828V52.3745ZM64.6444 49.8064C64.6444 48.939 65.3463 48.1857 66.2042 48.1857C67.0621 48.1857 67.764 48.8477 67.764 49.8064C67.764 50.7652 67.0509 51.4272 66.2042 51.4272C65.3575 51.4272 64.6444 50.6853 64.6444 49.8064ZM66.2042 52.4886C66.6944 52.4886 67.1512 52.3517 67.5523 52.112V52.3745H68.6776V50.7766C68.789 50.4798 68.8558 50.1488 68.8558 49.8064C68.8558 49.464 68.789 49.1445 68.6776 48.8363V47.2384H67.5523V47.5009C67.1512 47.2612 66.6944 47.1243 66.2042 47.1243C64.7447 47.1243 63.5525 48.3227 63.5525 49.8064C63.5525 51.2902 64.7447 52.4886 66.2042 52.4886ZM58.8398 48.7222V45.9601H60.4218C61.38 45.9601 61.8813 46.6563 61.8813 47.3639C61.8813 48.0716 61.4023 48.7222 60.4218 48.7222H58.8398ZM57.7256 52.3745H58.8398V49.8407H60.4887C62.2156 49.8407 63.0289 48.5966 63.0289 47.3411C63.0289 46.0856 62.2156 44.8416 60.4887 44.8416H57.7256V52.3745ZM50.3099 49.8977V49.8635C50.3099 48.7564 51.101 48.1515 51.892 48.1515C52.3376 48.1515 52.7499 48.3227 53.0618 48.7336L50.3099 49.8977ZM51.8808 52.4886C52.8501 52.4886 53.9086 52.0321 54.4322 51.0391L53.6412 50.4342C53.2178 51.1418 52.527 51.4614 51.8808 51.4614C51.4129 51.4614 50.9227 51.256 50.6107 50.8451L54.3431 49.27C54.1091 47.7862 53.0173 47.1243 51.9143 47.1243C50.2431 47.1243 49.2403 48.4482 49.2403 49.8064C49.2403 51.1646 50.1539 52.4886 51.8808 52.4886ZM43.7254 49.8064C43.7254 48.9048 44.4161 48.1515 45.2963 48.1515C46.1765 48.1515 46.8672 48.9048 46.8672 49.8064C46.8672 50.7081 46.1653 51.4614 45.2963 51.4614C44.4273 51.4614 43.7254 50.6967 43.7254 49.8064ZM45.2963 52.5C45.7754 52.5 46.221 52.3745 46.611 52.1462V52.4087H47.7363V50.8565C47.87 50.5369 47.9479 50.1831 47.9479 49.8064C47.9479 49.4298 47.87 49.076 47.7363 48.7564V44.6932H46.611V47.4667C46.221 47.2384 45.7754 47.1128 45.2963 47.1128C43.8368 47.1128 42.6447 48.3113 42.6447 49.8064C42.6447 51.3016 43.8368 52.5 45.2963 52.5Z" fill="white"/>
<path d="M59.9361 38.9407V38.9065C59.9361 37.7994 60.7272 37.1944 61.5182 37.1944C61.9638 37.1944 62.3761 37.3656 62.688 37.7765L59.9361 38.9407ZM61.507 41.5316C62.4763 41.5316 63.5348 41.075 64.0584 40.0821L63.2674 39.4771C62.844 40.1848 62.1532 40.5044 61.507 40.5044C61.0391 40.5044 60.5489 40.2989 60.2369 39.888L63.9693 38.313C63.7353 36.8292 62.6435 36.1672 61.5405 36.1672C59.8693 36.1672 58.8665 37.4912 58.8665 38.8494C58.8665 40.2076 59.7801 41.5316 61.507 41.5316ZM56.1703 41.4517H57.2956V33.7361H56.1703V41.4517ZM53.0396 41.4517H54.1649V33.7361H53.0396V41.4517ZM49.6304 35.2884H51.3127V33.5649H49.6304V35.2884ZM49.9089 41.4289H51.0342V36.2699H49.9089V41.4289ZM45.0847 41.4174H45.9091L48.739 34.2041L47.6806 33.7704L45.4969 39.4886L43.3132 33.7704L42.2548 34.2041L45.0847 41.4174Z" fill="white"/>
<path d="M76.4365 28.8055C76.4365 27.9381 77.1384 27.1848 77.9963 27.1848C78.8542 27.1848 79.5561 27.8468 79.5561 28.8055C79.5561 29.7643 78.8431 30.4262 77.9963 30.4262C77.1496 30.4262 76.4365 29.6844 76.4365 28.8055ZM77.9963 31.4877C78.4865 31.4877 78.9433 31.3507 79.3444 31.111V31.3736H80.4697V29.7757C80.5811 29.4789 80.648 29.1479 80.648 28.8055C80.648 28.4631 80.5811 28.1435 80.4697 27.8354V26.2375H79.3444V26.5C78.9433 26.2603 78.4865 26.1233 77.9963 26.1233C76.5368 26.1233 75.3447 27.3218 75.3447 28.8055C75.3447 30.2893 76.5368 31.4877 77.9963 31.4877ZM72.8824 31.4078H74.0077V23.6923H72.8824V31.4078ZM64.0518 28.8968V28.8626C64.0518 27.7555 64.8428 27.1506 65.6339 27.1506C66.0795 27.1506 66.4917 27.3218 66.8037 27.7326L64.0518 28.8968ZM65.6227 31.4877C66.592 31.4877 67.6504 31.0312 68.1741 30.0382L67.383 29.4333C66.9597 30.1409 66.2689 30.4605 65.6227 30.4605C65.1548 30.4605 64.6646 30.255 64.3526 29.8442L68.085 28.2691C67.851 26.7853 66.7591 26.1233 65.6561 26.1233C63.9849 26.1233 62.9822 27.4473 62.9822 28.8055C62.9822 30.1637 63.8958 31.4877 65.6227 31.4877ZM57.4115 28.8055C57.4115 27.9039 58.1023 27.1506 58.9825 27.1506C59.8626 27.1506 60.5534 27.9039 60.5534 28.8055C60.5534 29.7072 59.8515 30.4605 58.9825 30.4605C58.1134 30.4605 57.4115 29.6958 57.4115 28.8055ZM58.9825 31.4991C59.4615 31.4991 59.9072 31.3736 60.2971 31.1453V31.4078H61.4224V29.8556C61.5561 29.536 61.6341 29.1822 61.6341 28.8055C61.6341 28.4289 61.5561 28.0751 61.4224 27.7555V23.6923H60.2971V26.4657C59.9072 26.2375 59.4615 26.1119 58.9825 26.1119C57.5229 26.1119 56.3308 27.3103 56.3308 28.8055C56.3308 30.3007 57.5229 31.4991 58.9825 31.4991Z" fill="white"/>
<path d="M78.7985 20.9873C79.7789 20.9873 80.8039 20.4965 80.8039 19.4122C80.8039 18.6361 80.3026 18.1225 79.155 17.8486C78.0854 17.5746 77.9406 17.3578 77.9406 17.1067C77.9406 16.7529 78.3082 16.5816 78.7205 16.5816C79.233 16.5816 79.7678 16.8327 80.1243 17.2665L80.7816 16.5132C80.2803 15.9425 79.6118 15.6229 78.7428 15.6229C77.7178 15.6229 76.8487 16.2621 76.8487 17.1752C76.8487 18.0312 77.4838 18.4535 78.4642 18.7274C79.4112 18.9899 79.7009 19.0812 79.7009 19.4122C79.7009 19.8117 79.2887 19.9829 78.8765 19.9829C78.2525 19.9829 77.7512 19.6405 77.3167 19.104L76.5702 19.8003C77.1161 20.6106 77.9294 20.9873 78.7985 20.9873ZM71.3783 18.3964V18.3622C71.3783 17.255 72.1693 16.6501 72.9604 16.6501C73.406 16.6501 73.8183 16.8213 74.1302 17.2322L71.3783 18.3964ZM72.9492 20.9873C73.9185 20.9873 74.977 20.5307 75.5006 19.5378L74.7096 18.9328C74.2862 19.6405 73.5954 19.9601 72.9492 19.9601C72.4813 19.9601 71.9911 19.7546 71.6791 19.3437L75.4115 17.7687C75.1775 16.2849 74.0857 15.6229 72.9827 15.6229C71.3115 15.6229 70.3087 16.9469 70.3087 18.3051C70.3087 19.6633 71.2223 20.9873 72.9492 20.9873ZM65.05 18.3964V18.3622C65.05 17.255 65.841 16.6501 66.6321 16.6501C67.0777 16.6501 67.49 16.8213 67.8019 17.2322L65.05 18.3964ZM64.9163 14.3446L65.2951 15.2805L68.047 14.1163L67.6682 13.1804L64.9163 14.3446ZM66.6209 20.9873C67.5902 20.9873 68.6487 20.5307 69.1723 19.5378L68.3813 18.9328C67.9579 19.6405 67.2671 19.9601 66.6209 19.9601C66.153 19.9601 65.6628 19.7546 65.3508 19.3437L69.0832 17.7687C68.8492 16.2849 67.7574 15.6229 66.6544 15.6229C64.9832 15.6229 63.9804 16.9469 63.9804 18.3051C63.9804 19.6633 64.894 20.9873 66.6209 20.9873ZM60.794 20.9873C61.7744 20.9873 62.7994 20.4965 62.7994 19.4122C62.7994 18.6361 62.2981 18.1225 61.1505 17.8486C60.081 17.5746 59.9361 17.3578 59.9361 17.1067C59.9361 16.7529 60.3038 16.5816 60.716 16.5816C61.2285 16.5816 61.7633 16.8327 62.1198 17.2665L62.7772 16.5132C62.2758 15.9425 61.6073 15.6229 60.7383 15.6229C59.7133 15.6229 58.8443 16.2621 58.8443 17.1752C58.8443 18.0312 59.4793 18.4535 60.4598 18.7274C61.4068 18.9899 61.6965 19.0812 61.6965 19.4122C61.6965 19.8117 61.2842 19.9829 60.872 19.9829C60.2481 19.9829 59.7467 19.6405 59.3122 19.104L58.5657 19.8003C59.1117 20.6106 59.925 20.9873 60.794 20.9873ZM52.3488 15.737V18.3051C52.3488 20.1198 53.5633 20.9873 54.7665 20.9873C55.9698 20.9873 57.1731 20.1198 57.1731 18.3051V15.737H56.0478V18.3736C56.0478 19.4008 55.4461 19.8459 54.8111 19.8459C54.1426 19.8459 53.4741 19.3551 53.4741 18.3736V15.737H52.3488ZM49.5836 13.3174L46.7737 17.8805L43.9638 13.3174H43.0703V20.8731H44.2179V15.6686L46.435 19.2867H47.1146L49.3318 15.6572V20.8731H50.4793V13.3174H49.5858H49.5836Z" fill="white"/>
<path d="M17.7927 13.4338H4.87097L11.3218 23.1034L17.7927 13.4338Z" fill="white"/>
<path d="M35.8574 44.1568C34.0034 44.1568 32.0671 43.1866 30.8749 41.2669L32.2342 40.0433C33.2213 41.4997 34.6229 42.2165 35.8997 42.2165C37.0517 42.2165 38.1035 41.4997 38.1035 40.2556C38.1035 38.9476 36.9715 38.4203 34.6028 37.4707C32.564 36.6695 31.4944 35.277 31.4944 33.7796C31.4944 31.312 33.4709 29.8122 35.6746 29.8122C36.5036 29.8122 37.3704 30.0223 38.177 30.4423V13.4338H34.1973V20.3778C34.1973 24.3657 31.6014 26.4749 28.4729 26.4749C25.3444 26.4749 22.7885 24.3452 22.7885 20.3778V13.4338H19.5954V30.0359H17.385V17.876L12.0081 25.8814H10.64L5.26315 17.8303V30.0359H3.05271V13.4338H0.00219727V52.4407H38.1748V43.5587C37.4795 43.9559 36.6662 44.1568 35.8574 44.1568ZM6.21017 46.3687C4.35625 46.3687 2.41987 45.3986 1.22775 43.4788L2.587 42.2553C3.57412 43.7116 4.9757 44.4284 6.25251 44.4284C7.40452 44.4284 8.45627 43.7116 8.45627 42.4676C8.45627 41.1596 7.32431 40.6323 4.95565 39.6827C2.91678 38.8814 1.84498 37.489 1.84498 35.9915C1.84498 33.5239 3.82146 32.0242 6.02522 32.0242C7.48697 32.0242 9.0735 32.677 10.2255 33.985L8.96877 35.3569C8.16659 34.4918 7.11485 33.9645 6.04528 33.9645C4.87098 33.9645 3.84151 34.6402 3.84151 35.8203C3.84151 37.0005 4.91109 37.6145 6.43745 38.2035C9.11361 39.2375 10.4528 40.3332 10.4528 42.3808C10.4528 45.0173 8.31143 46.3687 6.21017 46.3687ZM18.147 31.4512L18.8066 33.0537L13.8442 35.1629L13.1847 33.5604L18.147 31.4512ZM20.0745 49.8612H12.0215V35.9596L19.8673 35.939V37.7949H13.9356V41.8672L19.455 41.8467V43.7025H13.9356V48.0282L20.0723 48.0077V49.8635L20.0745 49.8612ZM30.3156 43.9536H22.2627V30.0519L30.1084 30.0314V31.8872H24.1767V35.9596L29.6962 35.939V37.7949H24.1767V42.1206L30.3134 42.1V43.9559L30.3156 43.9536Z" fill="white"/>
<path d="M33.4888 33.6106C33.4888 34.7497 34.5606 35.4025 36.0847 35.9937C36.9092 36.311 37.6044 36.6375 38.1748 36.9936V32.7318C37.4462 32.12 36.5772 31.7548 35.6925 31.7548C34.5182 31.7548 33.4888 32.4304 33.4888 33.6106Z" fill="white"/>
<path d="M28.4684 24.6191C30.7547 24.6191 32.2788 22.9938 32.2788 20.2523V13.4338H24.7004V20.2523C24.7004 22.9938 26.2045 24.6191 28.4684 24.6191Z" fill="white"/>
</svg>
