<svg width="20" height="21" viewBox="0 0 20 21" fill="none" xmlns="http://www.w3.org/2000/svg">
<path d="M0 1.5C0 0.947715 0.447715 0.5 1 0.5H19C19.5523 0.5 20 0.947715 20 1.5V2C20 2.55228 19.5523 3 19 3H1C0.447715 3 0 2.55228 0 2V1.5ZM0 10.25C0 9.69772 0.447715 9.25 1 9.25H19C19.5523 9.25 20 9.69772 20 10.25V10.75C20 11.3023 19.5523 11.75 19 11.75H1C0.447715 11.75 0 11.3023 0 10.75V10.25ZM0 19C0 18.4477 0.447715 18 1 18H19C19.5523 18 20 18.4477 20 19V19.5C20 20.0523 19.5523 20.5 19 20.5H1C0.447715 20.5 0 20.0523 0 19.5V19Z" fill="white"/>
</svg>
