<svg width="40" height="66" viewBox="0 0 40 66" fill="none" xmlns="http://www.w3.org/2000/svg">
<path d="M13.3624 4.6144C10.69 5.18491 8.7286 7.13087 7.96281 9.96775C7.80652 10.5383 7.78308 10.8196 7.78308 11.9606C7.78308 13.086 7.80652 13.383 7.95499 13.9222C8.47854 15.8603 9.53345 17.4781 11.6824 19.6272C12.37 20.3149 13.3702 21.2684 13.9094 21.7373C15.6988 23.2925 19.856 26.8093 20.0279 26.9031C20.2623 27.0359 20.778 27.0281 21.0359 26.8953C21.2391 26.7859 24.6851 23.8864 27.0763 21.8154C30.7958 18.5722 32.4837 16.3605 33.1401 13.8284C33.2963 13.2423 33.3198 12.9453 33.3198 11.9215C33.312 10.8821 33.2807 10.6008 33.1088 9.95993C32.3665 7.15431 30.3504 5.16146 27.7248 4.62222C26.5371 4.37995 25.0133 4.50499 23.9584 4.93482C22.8566 5.38028 21.5282 6.45877 20.864 7.45129C20.7155 7.67011 20.5671 7.85767 20.5436 7.85767C20.5124 7.85767 20.3951 7.70918 20.2779 7.52162C19.9576 7.03709 18.9417 6.01331 18.4416 5.66944C17.8555 5.27087 17.1835 4.94264 16.5271 4.73163C15.8317 4.50499 14.1438 4.44247 13.3624 4.6144ZM15.3941 6.91986C17.0585 7.18557 18.6448 8.78767 19.3324 10.8899C19.7856 12.2654 21.3094 12.2263 21.7626 10.8118C21.8408 10.5851 22.0361 10.1319 22.2002 9.81145C23.0285 8.21717 24.1616 7.24809 25.5369 6.95112C26.2011 6.81826 26.5527 6.81826 27.2325 6.95893C28.8813 7.31062 30.1238 8.46725 30.7098 10.2022C30.8427 10.5851 30.8896 10.9681 30.9208 11.734C30.9599 12.6796 30.9443 12.8203 30.7567 13.4924C30.1003 15.7666 28.6235 17.4155 22.755 22.386L20.5358 24.2538L18.1837 22.2531C12.6826 17.5953 11.2213 16.0166 10.4712 13.9535C9.47094 11.226 10.6431 8.16246 13.0576 7.18557C13.8312 6.87297 14.5501 6.787 15.3941 6.91986Z" fill="black"/>
<path d="M13.167 27.0422C11.8621 27.2064 10.3852 27.8003 9.35371 28.5818L8.90049 28.9257L8.55667 28.5584C8.11908 28.0895 7.50957 27.73 6.90007 27.5737C6.50154 27.4721 5.96237 27.4564 3.57905 27.4721C0.789389 27.4955 0.742504 27.4955 0.500265 27.6674C-0.0232842 28.0426 0.000158366 27.6049 0.000158366 35.6779C0.000158366 42.4614 0.00797252 42.9851 0.140813 43.2351C0.211141 43.3836 0.375238 43.579 0.492451 43.665C0.703433 43.8213 0.820646 43.8291 3.6103 43.8525C6.09521 43.8682 6.56406 43.8525 6.93914 43.7431C7.54083 43.5712 7.92372 43.368 8.32224 43.0007L8.65825 42.6881L9.54907 42.9225C10.7368 43.243 12.0887 43.5087 13.3624 43.6884C14.3235 43.8135 15.0659 43.8291 21.411 43.8291H28.4046L29.1704 43.6181C30.577 43.2195 31.7335 42.5787 32.7415 41.633C33.1479 41.2501 34.234 39.8668 36.4532 36.9049C39.8837 32.3409 39.9227 32.2784 39.9931 31.1842C40.165 28.3864 37.1096 26.5186 34.7029 27.9488C34.3434 28.1598 32.4524 30.0823 30.7723 31.9423L30.4988 32.2471L30.3035 31.8251C29.9519 31.0514 29.1392 30.3168 28.2874 29.9807C27.9749 29.8635 27.5216 29.84 24.4585 29.801L20.9812 29.7619L20.4733 29.5196C20.192 29.3868 19.77 29.1211 19.5356 28.9257C18.3009 27.9253 17.0819 27.3548 15.6363 27.1048C15.0424 26.9953 13.7531 26.9641 13.167 27.0422ZM15.6676 29.5274C16.4412 29.7306 17.1835 30.1214 18.0431 30.7622C18.9261 31.4265 19.3168 31.6453 20.0904 31.9267C20.5749 32.0986 20.6921 32.1064 24.0443 32.1455C27.3732 32.1846 27.506 32.1924 27.7092 32.3487C28.2562 32.7551 28.4046 33.2631 28.139 33.8179C28.0061 34.0758 27.8811 34.2087 27.631 34.3259C27.3107 34.4822 27.1856 34.49 22.88 34.49H18.465L18.2072 34.662C17.6211 35.0605 17.457 35.592 17.7305 36.1468C17.8243 36.3344 17.9962 36.5532 18.1134 36.6392C18.3166 36.7877 18.465 36.7955 23.3645 36.8189C28.2249 36.8346 28.4203 36.8346 28.9204 36.6783C29.8659 36.3969 29.7018 36.5454 34.1871 31.7547C35.3827 30.4809 35.9141 29.9729 36.1172 29.8948C36.8986 29.5978 37.7817 30.348 37.6254 31.1764C37.555 31.575 31.71 39.3588 30.9911 40.0153C30.3816 40.578 29.5064 41.0547 28.6313 41.3048L28.0139 41.4846H21.4891C14.6908 41.4846 14.3548 41.4689 12.3934 41.1329C11.9246 41.0469 11.0885 40.8672 10.5415 40.7343L9.53344 40.4842L9.54907 35.9827L9.57251 31.489L10.2289 30.9185C11.5495 29.7853 12.8857 29.293 14.4564 29.3711C14.8627 29.3868 15.4097 29.4571 15.6676 29.5274ZM6.61094 30.0042C6.72815 30.0901 6.90007 30.2621 6.98602 30.3793C7.15012 30.5903 7.15012 30.6841 7.17356 35.5607C7.18919 40.4608 7.18919 40.5311 7.03291 40.8672C6.90788 41.1094 6.77504 41.2423 6.5328 41.3595C6.22805 41.508 6.06395 41.5236 4.27451 41.5236H2.34441V35.6623V29.7932L4.36828 29.8166C6.27493 29.84 6.40777 29.8479 6.61094 30.0042Z" fill="black"/>
</svg>
