<?xml version="1.0" encoding="UTF-8"?>
<svg id="Calque_1" xmlns="http://www.w3.org/2000/svg" viewBox="0 0 829.07 340.2">
  <defs>
    <style>
      .cls-1 {
        fill: none;
      }

      .cls-2 {
        fill: #231f20;
      }
    </style>
  </defs>
  <rect class="cls-1" width="829.07" height="340.2"/>
  <rect class="cls-2" x="336.52" y="113.18" width="1.56" height="143.45"/>
  <g>
    <path class="cls-2" d="M413.38,97.75h6.02v-13.19h8.06c8.55,0,13.97-6.57,13.97-13.19s-5.06-13.37-13.73-13.37h-14.33v39.74h0ZM419.41,78.66v-14.75h7.94c5.18,0,7.89,3.73,7.89,7.47s-2.77,7.28-7.89,7.28h-7.94ZM451.44,98.34l3.79-9.33h17.29l3.85,9.33,5.42-2.29-15.84-38.06h-4.34l-15.84,38.06,5.66,2.29h0ZM457.53,83.23l6.26-15.41,6.38,15.41h-12.65,0ZM517.81,98.34l4.87-3.62-9.45-13.01c4.58-2.11,7.16-6.44,7.16-11.13,0-6.69-4.4-12.59-13.67-12.59h-13.3v39.74h5.9v-14.63h7.41l11.08,15.24h0ZM499.32,77.33v-13.55h7.04c5.24,0,7.94,3.19,7.94,6.92s-2.59,6.63-7.94,6.63h-7.04ZM536.23,97.75h6.08v-39.74h-6.08v39.74ZM570.25,98.34c6.2,0,12.52-3.91,12.52-11.5,0-5.9-3.97-8.98-11.81-11.93-4.46-1.68-7.53-3.31-7.53-6.51s2.95-5.24,6.32-5.24c3.13,0,6.2,1.51,8.55,4.03l3.85-4.09c-3.43-3.79-8.13-5.73-12.46-5.73-6.5,0-12.34,4.34-12.34,11.44,0,4.93,3.19,8.25,9.15,10.54,6.92,2.7,10.17,4.03,10.17,7.71s-3.01,5.48-6.32,5.48c-3.73,0-7.83-2.05-10.72-6.26l-4.16,3.68c3.56,5.54,9.27,8.37,14.75,8.37"/>
    <path class="cls-2" d="M764.57,283c4.36,0,8.92-2.13,8.92-6.84,0-3.37-2.23-5.6-7.33-6.79-4.76-1.19-5.4-2.13-5.4-3.22,0-1.54,1.63-2.28,3.47-2.28,2.28,0,4.66,1.09,6.24,2.97l2.92-3.27c-2.23-2.48-5.2-3.86-9.06-3.86-4.56,0-8.42,2.77-8.42,6.74,0,3.71,2.82,5.55,7.18,6.74,4.21,1.14,5.5,1.54,5.5,2.97,0,1.73-1.83,2.48-3.67,2.48-2.77,0-5-1.49-6.93-3.81l-3.32,3.02c2.43,3.52,6.04,5.15,9.91,5.15M743.22,255.9h7.48v-7.48h-7.48v7.48ZM744.46,282.55h5v-22.39h-5v22.39ZM727.17,282.5h5v-15.26l8.22-3.37-1.68-4.16-6.54,2.67v-2.18h-5v22.29h0ZM700.77,271.36c0-3.76,3.12-7.03,6.93-7.03s6.93,2.87,6.93,7.03-3.17,7.03-6.93,7.03-6.93-3.22-6.93-7.03M707.7,283c2.18,0,4.21-.59,5.99-1.63v1.14h5v-6.93c.5-1.29.79-2.72.79-4.21s-.3-2.87-.79-4.21v-6.93h-5v1.14c-1.78-1.04-3.81-1.63-5.99-1.63-6.49,0-11.79,5.2-11.79,11.64s5.3,11.64,11.79,11.64M674.96,266.65v-11.99h7.03c4.26,0,6.49,3.02,6.49,6.09s-2.13,5.89-6.49,5.89h-7.03ZM670.01,282.5h4.95v-11h7.33c7.68,0,11.29-5.4,11.29-10.85s-3.62-10.85-11.29-10.85h-12.28v32.69h0ZM637.04,271.75v-.15c0-4.8,3.52-7.43,7.03-7.43,1.98,0,3.81.74,5.2,2.53l-12.23,5.05ZM644.03,283c4.31,0,9.01-1.98,11.34-6.29l-3.52-2.63c-1.88,3.07-4.95,4.46-7.83,4.46-2.08,0-4.26-.89-5.65-2.67l16.59-6.84c-1.04-6.44-5.89-9.31-10.8-9.31-7.43,0-11.89,5.75-11.89,11.64s4.06,11.64,11.74,11.64M607.77,271.36c0-3.91,3.07-7.18,6.98-7.18s6.98,3.27,6.98,7.18-3.12,7.18-6.98,7.18-6.98-3.32-6.98-7.18M614.75,283.05c2.13,0,4.11-.54,5.84-1.54v1.14h5v-6.74c.59-1.39.94-2.92.94-4.56s-.35-3.17-.94-4.56v-17.63h-5v12.04c-1.73-.99-3.71-1.54-5.84-1.54-6.49,0-11.79,5.2-11.79,11.69s5.3,11.69,11.79,11.69"/>
    <path class="cls-2" d="M679.84,224.2v-.15c0-4.8,3.52-7.43,7.03-7.43,1.98,0,3.81.74,5.2,2.53l-12.23,5.05h0ZM686.82,235.45c4.31,0,9.01-1.98,11.34-6.29l-3.52-2.63c-1.88,3.07-4.95,4.46-7.83,4.46-2.08,0-4.26-.89-5.65-2.67l16.59-6.84c-1.04-6.44-5.89-9.31-10.8-9.31-7.43,0-11.89,5.75-11.89,11.64s4.06,11.64,11.74,11.64M663.1,235.1h5v-33.48h-5v33.48ZM649.18,235.1h5v-33.48h-5v33.48ZM634.02,208.35h7.48v-7.48h-7.48v7.48ZM635.26,235h5v-22.39h-5v22.39ZM613.81,234.95h3.67l12.58-31.3-4.71-1.88-9.71,24.82-9.71-24.82-4.71,1.88,12.58,31.3h0Z"/>
    <path class="cls-2" d="M753.2,180.22c0-3.76,3.12-7.03,6.93-7.03s6.93,2.87,6.93,7.03-3.17,7.03-6.93,7.03-6.93-3.22-6.93-7.03M760.13,191.86c2.18,0,4.21-.59,5.99-1.63v1.14h5v-6.93c.5-1.29.79-2.72.79-4.21s-.3-2.87-.79-4.21v-6.93h-5v1.14c-1.78-1.04-3.81-1.63-5.99-1.63-6.49,0-11.79,5.2-11.79,11.64s5.3,11.64,11.79,11.64M737.39,191.51h5v-33.48h-5v33.48ZM698.14,180.61v-.15c0-4.8,3.52-7.43,7.03-7.43,1.98,0,3.81.74,5.2,2.53l-12.23,5.05h0ZM705.12,191.86c4.31,0,9.01-1.98,11.34-6.29l-3.52-2.63c-1.88,3.07-4.95,4.46-7.83,4.46-2.08,0-4.26-.89-5.65-2.67l16.59-6.84c-1.04-6.44-5.89-9.31-10.8-9.31-7.43,0-11.89,5.75-11.89,11.64s4.06,11.64,11.74,11.64M668.61,180.22c0-3.91,3.07-7.18,6.98-7.18s6.98,3.27,6.98,7.18-3.12,7.18-6.98,7.18-6.98-3.32-6.98-7.18M675.6,191.91c2.13,0,4.11-.54,5.84-1.54v1.14h5v-6.74c.59-1.39.94-2.92.94-4.56s-.35-3.17-.94-4.56v-17.63h-5v12.04c-1.73-.99-3.71-1.54-5.84-1.54-6.49,0-11.79,5.2-11.79,11.69s5.3,11.69,11.79,11.69"/>
    <path class="cls-2" d="M763.7,146.29c4.36,0,8.92-2.13,8.92-6.84,0-3.37-2.23-5.6-7.33-6.79-4.76-1.19-5.4-2.13-5.4-3.22,0-1.54,1.63-2.28,3.47-2.28,2.28,0,4.66,1.09,6.24,2.97l2.92-3.27c-2.23-2.48-5.2-3.86-9.06-3.86-4.56,0-8.42,2.77-8.42,6.74,0,3.71,2.82,5.55,7.18,6.74,4.21,1.14,5.5,1.54,5.5,2.97,0,1.73-1.83,2.48-3.67,2.48-2.77,0-5-1.49-6.93-3.81l-3.32,3.02c2.43,3.52,6.04,5.15,9.91,5.15M730.71,135.04v-.15c0-4.8,3.52-7.43,7.03-7.43,1.98,0,3.81.74,5.2,2.53l-12.23,5.05h0ZM737.69,146.29c4.31,0,9.01-1.98,11.34-6.29l-3.52-2.63c-1.88,3.07-4.95,4.46-7.83,4.46-2.08,0-4.26-.89-5.65-2.67l16.59-6.84c-1.04-6.44-5.89-9.31-10.8-9.31-7.43,0-11.89,5.75-11.89,11.64s4.06,11.64,11.74,11.64M702.57,135.04v-.15c0-4.8,3.52-7.43,7.03-7.43,1.98,0,3.81.74,5.2,2.53l-12.23,5.05h0ZM701.98,117.46l1.68,4.06,12.23-5.05-1.68-4.06-12.23,5.05ZM709.56,146.29c4.31,0,9.01-1.98,11.34-6.29l-3.52-2.63c-1.88,3.07-4.95,4.46-7.83,4.46-2.08,0-4.26-.89-5.65-2.67l16.59-6.84c-1.04-6.44-5.89-9.31-10.8-9.31-7.43,0-11.89,5.75-11.89,11.64s4.06,11.64,11.74,11.64M683.65,146.29c4.36,0,8.92-2.13,8.92-6.84,0-3.37-2.23-5.6-7.33-6.79-4.76-1.19-5.4-2.13-5.4-3.22,0-1.54,1.63-2.28,3.47-2.28,2.28,0,4.66,1.09,6.24,2.97l2.92-3.27c-2.23-2.48-5.2-3.86-9.06-3.86-4.56,0-8.42,2.77-8.42,6.74,0,3.71,2.82,5.55,7.18,6.74,4.21,1.14,5.5,1.54,5.5,2.97,0,1.73-1.83,2.48-3.67,2.48-2.77,0-5-1.49-6.93-3.81l-3.32,3.02c2.43,3.52,6.04,5.15,9.91,5.15M646.11,123.5v11.14c0,7.88,5.4,11.64,10.75,11.64s10.7-3.76,10.7-11.64v-11.14h-5v11.44c0,4.46-2.67,6.39-5.5,6.39-2.97,0-5.94-2.13-5.94-6.39v-11.44h-5ZM633.81,113l-12.49,19.8-12.49-19.8h-3.97v32.79h5.1v-22.59l9.86,15.7h3.02l9.86-15.75v22.64h5.1v-32.79h-3.98Z"/>
    <polygon class="cls-2" points="492.48 113.51 435.03 113.51 463.71 155.47 492.48 113.51"/>
    <path class="cls-2" d="M572.79,246.84c-8.24,0-16.85-4.21-22.15-12.54l6.04-5.31c4.39,6.32,10.62,9.43,16.3,9.43,5.12,0,9.8-3.11,9.8-8.51,0-5.68-5.03-7.96-15.56-12.09-9.06-3.48-13.82-9.52-13.82-16.02,0-10.71,8.79-17.22,18.58-17.22,3.69,0,7.54.91,11.12,2.73v-73.81h-17.69v30.14c0,17.31-11.54,26.46-25.45,26.46s-25.27-9.24-25.27-26.46v-30.14h-14.2v72.05h-9.83v-52.77l-23.9,34.74h-6.08l-23.9-34.94v52.97h-9.83v-72.05h-13.56v169.28h169.71v-38.55c-3.09,1.72-6.71,2.6-10.3,2.6ZM440.98,256.44c-8.24,0-16.85-4.21-22.15-12.54l6.04-5.31c4.39,6.32,10.62,9.43,16.3,9.43,5.12,0,9.8-3.11,9.8-8.51,0-5.68-5.03-7.96-15.56-12.09-9.06-3.48-13.83-9.52-13.83-16.02,0-10.71,8.79-17.22,18.58-17.22,6.5,0,13.55,2.83,18.67,8.51l-5.59,5.95c-3.57-3.75-8.24-6.04-13-6.04-5.22,0-9.8,2.93-9.8,8.05s4.76,7.79,11.54,10.34c11.9,4.49,17.85,9.24,17.85,18.13,0,11.44-9.52,17.31-18.86,17.31ZM494.05,191.7l2.93,6.95-22.06,9.15-2.93-6.95,22.06-9.15ZM502.62,271.59h-35.8v-60.33l34.88-.09v8.05h-26.37v17.67l24.54-.09v8.05h-24.54v18.77l27.28-.09v8.05h0ZM548.15,245.96h-35.8v-60.33l34.88-.09v8.05h-26.37v17.67l24.54-.09v8.05h-24.54v18.77l27.28-.09v8.05h0Z"/>
    <path class="cls-2" d="M562.26,201.07c0,4.94,4.77,7.78,11.54,10.34,3.67,1.38,6.76,2.79,9.29,4.34v-18.5c-3.24-2.65-7.1-4.24-11.04-4.24-5.22,0-9.8,2.93-9.8,8.05h0Z"/>
    <path class="cls-2" d="M539.94,162.05c10.16,0,16.94-7.05,16.94-18.95v-29.59h-33.69v29.59c0,11.9,6.69,18.95,16.75,18.95h0Z"/>
  </g>
  <g>
    <path class="cls-2" d="M77.75,227.77h-21.06v55.62h12.71v-17.48h8.35c10.96,0,19.46-8.5,19.46-19.07s-8.5-19.07-19.46-19.07ZM77.75,254h-8.35v-14.31h8.35c3.89,0,6.75,3.1,6.75,7.15s-2.86,7.15-6.75,7.15Z"/>
    <path class="cls-2" d="M264.8,250.84c-8.65-2.56-12.1-4.04-12.1-7.57,0-2.64,2.53-4.21,5.96-4.21,5.54,0,7.81,2.97,9.73,5.74l10.61-5.58c-1.76-3.49-6.96-12.55-20.34-12.55h0c-9.41,0-18.67,5.99-18.67,16.93,0,13.13,12.49,15.54,16.37,16.92,3.88,1.38,11.52,2.34,11.52,7.07,0,3.29-3.45,4.53-7.95,4.53-5.01,0-9.01-2.75-11.43-7.03l-10.82,5.67c.83,2.31,7.12,13.75,22.25,13.75,11.89,0,20.66-6.25,20.66-17.08,0-8.57-4.68-13.29-15.79-16.58Z"/>
    <path class="cls-2" d="M115.89,227.77l-18.91,55.62h13.91l3.12-9.77c3.19.82,6.55,1.25,9.99,1.25s6.8-.43,9.99-1.25l3.11,9.77h13.9l-18.9-55.62h-16.21ZM124,263.74c-2.27,0-4.48-.28-6.58-.82l6.58-20.6,6.57,20.6c-2.1.54-4.3.82-6.57.82Z"/>
    <path class="cls-2" d="M200.22,246.84c0-10.57-8.5-19.07-19.07-19.07h-22.25v55.62h12.71v-17.45h6.51l10.02,17.45h13.66l-11.68-20.14c6.14-2.89,10.09-9.57,10.09-16.41ZM181.15,254.81h-9.53v-15.12h9.53c3.5,0,6.35,3.28,6.35,7.56s-2.86,7.56-6.35,7.56Z"/>
    <rect class="cls-2" x="213.66" y="227.77" width="12.71" height="55.62"/>
    <polygon class="cls-2" points="134.8 198.21 134.8 215.86 144.89 215.86 144.89 213.09 137.71 213.09 137.71 198.21 134.8 198.21"/>
    <polygon class="cls-2" points="184.52 200.98 184.52 198.21 173.93 198.21 173.93 215.86 184.65 215.86 184.65 213.09 176.83 213.09 176.83 208.32 181.71 208.32 181.71 205.57 176.83 205.57 176.83 200.98 184.52 200.98"/>
    <rect class="cls-2" x="118.97" y="198.21" width="3.27" height="17.66"/>
    <polygon class="cls-2" points="164.46 213.09 157.27 213.09 157.27 198.21 154.37 198.21 154.37 215.86 164.46 215.86 164.46 213.09"/>
    <polygon class="cls-2" points="244.15 213.09 236.33 213.09 236.33 208.32 241.21 208.32 241.21 205.57 236.33 205.57 236.33 200.98 244.02 200.98 244.02 198.21 233.43 198.21 233.43 215.86 244.15 215.86 244.15 213.09"/>
    <polygon class="cls-2" points="102.74 215.86 108.87 198.21 105.71 198.21 100.99 212.35 96.31 198.21 93.13 198.21 99.26 215.86 102.74 215.86"/>
    <path class="cls-2" d="M223.2,207.04c0-4.94-3.58-8.83-8.45-8.83h-6.94v17.65h6.94c4.87,0,8.45-3.9,8.45-8.82ZM210.72,200.99h4.03c3.36,0,5.65,2.55,5.65,6.05s-2.29,6.05-5.65,6.05h-4.03v-12.1Z"/>
    <path class="cls-2" d="M170.82,186.13c33.23,0,55.79-18.27,65.4-44.09,2.21-5.95,2.12-8.09,1.41-8.11h0c-.49,0-.89.46-1.45,1.71-12.68,27.77-36.05,41.06-60.8,41.25-49.29.36-60.89-40.19-61.21-41.29l25.16,4.7c.13.27,9.75,22.4,35.16,22.4,26.88,0,45.59-26.81,45.59-54.54,0-24.95-10.53-39.22-25.8-50.42l-68.47,31.69c-.62.29-.53,1.2.14,1.35,37.93,8.79,44.37,36.03,42.57,51.49-.27,2.31,1.24,1.92,2.7-2.41,5.16-15.36,1.45-37.72-19.11-50.3,0,0,38.06-19.04,38.06-19.04,4.57,3.55,19.55,13.64,19.55,37.64s-13.87,45.84-35.23,45.84-28.6-21.67-28.71-21.97l-45.25-9.86c-.72-.19-1.42.4-1.33,1.15,3.93,34.52,31.57,62.82,71.62,62.82Z"/>
  </g>
</svg>