<svg width="182" height="59" viewBox="0 0 182 59" fill="none" xmlns="http://www.w3.org/2000/svg">
<path d="M5.38916 43.5096H0V57.7425H3.25243V53.2695H5.38916C8.19377 53.2695 10.3689 51.0944 10.3689 48.3896C10.3689 45.6848 8.19377 43.5096 5.38916 43.5096ZM5.38916 50.2218H3.25243V46.5599H5.38916C6.38459 46.5599 7.11645 47.3532 7.11645 48.3896C7.11645 49.4259 6.38459 50.2192 5.38916 50.2192V50.2218Z" fill="#231F20"/>
<path d="M53.2543 49.4134C51.0408 48.7583 50.158 48.3796 50.158 47.4763C50.158 46.8007 50.8054 46.3989 51.6831 46.3989C53.1008 46.3989 53.6817 47.1589 54.173 47.8678L56.8881 46.4399C56.4377 45.5468 55.107 43.2284 51.6831 43.2284C49.2752 43.2284 46.9056 44.7612 46.9056 47.5607C46.9056 50.9206 50.1017 51.5373 51.0946 51.8905C52.0875 52.2436 54.0425 52.4892 54.0425 53.6996C54.0425 54.5415 53.1597 54.8588 52.0081 54.8588C50.7261 54.8588 49.7025 54.1551 49.0832 53.0599L46.3145 54.5108C46.5268 55.1019 48.1364 58.0294 52.0081 58.0294C55.0507 58.0294 57.2949 56.43 57.2949 53.6587C57.2949 51.4657 56.0973 50.2578 53.2543 49.4159V49.4134Z" fill="#231F20"/>
<path d="M15.149 43.5096L10.3101 57.7425H13.8696L14.668 55.2424C15.4843 55.4523 16.3441 55.5623 17.2244 55.5623C18.1046 55.5623 18.9644 55.4523 19.7807 55.2424L20.5766 57.7425H24.1335L19.2971 43.5096H15.149ZM17.2244 52.7142C16.6435 52.7142 16.0779 52.6426 15.5406 52.5044L17.2244 47.2329L18.9056 52.5044C18.3682 52.6426 17.8052 52.7142 17.2244 52.7142Z" fill="#231F20"/>
<path d="M36.7289 48.3896C36.7289 45.6848 34.5538 43.5096 31.8489 43.5096H26.1553V57.7425H29.4077V53.2772H31.0736L33.6377 57.7425H37.1332L34.1443 52.5888C35.7155 51.8493 36.7263 50.1399 36.7263 48.3896H36.7289ZM31.8489 50.4291H29.4103V46.5599H31.8489C32.7446 46.5599 33.4739 47.3993 33.4739 48.4945C33.4739 49.5897 32.742 50.4291 31.8489 50.4291Z" fill="#231F20"/>
<path d="M43.4204 43.5096H40.168V57.7425H43.4204V43.5096Z" fill="#231F20"/>
<path d="M19.9883 35.9458V40.4624H22.5703V39.7535H20.7329V35.9458H19.9883Z" fill="#231F20"/>
<path d="M32.7114 36.6546V35.9458H30.0015V40.4624H32.7447V39.7535H30.7436V38.5329H31.9923V37.8292H30.7436V36.6546H32.7114Z" fill="#231F20"/>
<path d="M16.7738 35.9458H15.937V40.4649H16.7738V35.9458Z" fill="#231F20"/>
<path d="M27.5781 39.7535H25.7382V35.9458H24.9961V40.4624H27.5781V39.7535Z" fill="#231F20"/>
<path d="M47.9702 39.7535H45.9691V38.5329H47.2179V37.8292H45.9691V36.6546H47.937V35.9458H45.2271V40.4624H47.9702V39.7535Z" fill="#231F20"/>
<path d="M11.7839 40.4624L13.3525 35.9458H12.5439L11.336 39.5642L10.1385 35.9458H9.32471L10.8933 40.4624H11.7839Z" fill="#231F20"/>
<path d="M42.6096 38.2054C42.6096 36.9412 41.6935 35.9458 40.4473 35.9458H38.6714V40.4624H40.4473C41.6935 40.4624 42.6096 39.4644 42.6096 38.2054ZM39.416 36.6572H40.4473C41.3071 36.6572 41.8931 37.3097 41.8931 38.2054C41.8931 39.101 41.3071 39.7535 40.4473 39.7535H39.416V36.6572Z" fill="#231F20"/>
<path d="M29.2057 32.8544C37.7091 32.8544 43.4821 28.1792 45.9413 21.572C46.5068 20.0494 46.4838 19.5018 46.3021 19.4967C46.1767 19.4967 46.0743 19.6144 45.931 19.9343C42.6863 27.0405 36.706 30.4413 30.3726 30.4899C17.7595 30.5821 14.7911 20.2055 14.7092 19.924L21.1476 21.1267C21.1808 21.1958 23.6425 26.8588 30.1448 26.8588C37.0233 26.8588 41.8111 19.9982 41.8111 12.9022C41.8111 6.51766 39.1165 2.86603 35.209 0L17.6878 8.10933C17.5292 8.18354 17.5522 8.4164 17.7237 8.45478C27.4298 10.7041 29.0778 17.6747 28.6171 21.6308C28.5481 22.222 28.9345 22.1222 29.3081 21.0141C30.6285 17.0836 29.6791 11.3618 24.4179 8.14259L34.1573 3.27034C35.3267 4.17877 39.16 6.76076 39.16 12.9022C39.16 19.0437 35.6108 24.6325 30.1448 24.6325C24.6789 24.6325 22.8262 19.0872 22.7981 19.0105L11.2188 16.4873C11.0346 16.4387 10.8554 16.5897 10.8785 16.7816C11.8841 25.6151 18.9571 32.857 29.2057 32.857V32.8544Z" fill="#231F20"/>
<path d="M89.2975 10.3331H90.838V6.9578H92.9005C95.0884 6.9578 96.4753 5.27656 96.4753 3.58254C96.4753 1.88851 95.1805 0.161214 92.9619 0.161214H89.2949V10.3305L89.2975 10.3331ZM90.8405 5.44801V1.67356H92.8723C94.1979 1.67356 94.8914 2.62805 94.8914 3.58509C94.8914 4.54214 94.1825 5.44801 92.8723 5.44801H90.8405ZM99.0369 10.484L100.007 8.09653H104.431L105.416 10.484L106.803 9.89804L102.75 0.158656H101.639L97.5859 9.89804L99.0343 10.484H99.0369ZM100.595 6.61746L102.197 2.67411L103.83 6.61746H100.593H100.595ZM116.021 10.484L117.267 9.55769L114.849 6.22849C116.021 5.68855 116.681 4.58053 116.681 3.38038C116.681 1.66844 115.555 0.158656 113.183 0.158656H109.779V10.3279H111.289V6.58419H113.185L116.021 10.484ZM111.289 5.10767V1.64029H113.091C114.432 1.64029 115.122 2.4566 115.122 3.41109C115.122 4.36558 114.46 5.10767 113.091 5.10767H111.289ZM120.734 10.3331H122.29V0.163773H120.734V10.3331ZM129.44 10.484C131.026 10.484 132.644 9.48348 132.644 7.54124C132.644 6.03145 131.628 5.2433 129.621 4.48841C128.48 4.0585 127.695 3.64139 127.695 2.82253C127.695 2.00366 128.449 1.48163 129.312 1.48163C130.113 1.48163 130.898 1.86804 131.5 2.51289L132.485 1.46628C131.607 0.496437 130.405 0 129.296 0C127.633 0 126.139 1.11059 126.139 2.92744C126.139 4.18901 126.955 5.03858 128.48 5.62458C130.251 6.3155 131.083 6.65584 131.083 7.59753C131.083 8.53923 130.312 8.99984 129.465 8.99984C128.511 8.99984 127.462 8.47526 126.722 7.39794L125.658 8.33963C126.569 9.75729 128.03 10.4815 129.432 10.4815" fill="#231F20"/>
<path d="M179.165 57.7378C180.281 57.7378 181.448 57.1927 181.448 55.9875C181.448 55.1251 180.877 54.5544 179.572 54.2499C178.354 53.9454 178.19 53.7049 178.19 53.4259C178.19 53.0319 178.607 52.8425 179.078 52.8425C179.662 52.8425 180.271 53.1214 180.675 53.6025L181.422 52.7657C180.852 52.1311 180.092 51.778 179.104 51.778C177.937 51.778 176.949 52.4868 176.949 53.5027C176.949 54.4521 177.671 54.9229 178.787 55.2274C179.864 55.5192 180.194 55.6215 180.194 55.9875C180.194 56.4302 179.726 56.6221 179.255 56.6221C178.546 56.6221 177.975 56.2408 177.482 55.6471L176.632 56.4199C177.254 57.3207 178.178 57.7378 179.168 57.7378M173.702 50.803H175.616V48.8889H173.702V50.803ZM174.019 57.6226H175.299V51.8931H174.019V57.6226ZM169.595 57.6098H170.874V53.7049L172.978 52.8425L172.548 51.778L170.874 52.4612V51.9034H169.595V57.6073V57.6098ZM162.839 54.7592C162.839 53.797 163.638 52.9602 164.613 52.9602C165.588 52.9602 166.386 53.6946 166.386 54.7592C166.386 55.8237 165.575 56.5581 164.613 56.5581C163.65 56.5581 162.839 55.7341 162.839 54.7592ZM164.613 57.7378C165.17 57.7378 165.69 57.5868 166.145 57.3207V57.6124H167.425V55.839C167.553 55.5089 167.627 55.143 167.627 54.7617C167.627 54.3804 167.55 54.0273 167.425 53.6844V51.911H166.145V52.2028C165.69 51.9366 165.17 51.7857 164.613 51.7857C162.952 51.7857 161.596 53.1163 161.596 54.7643C161.596 56.4122 162.952 57.7429 164.613 57.7429M156.235 53.5539V50.4857H158.033C159.124 50.4857 159.694 51.2585 159.694 52.0441C159.694 52.8297 159.149 53.5513 158.033 53.5513H156.235V53.5539ZM154.968 57.6098H156.235V54.795H158.11C160.076 54.795 160.999 53.4131 160.999 52.0185C160.999 50.6239 160.073 49.2421 158.11 49.2421H154.968V57.6073V57.6098ZM146.531 54.859V54.8206C146.531 53.5923 147.432 52.9193 148.33 52.9193C148.837 52.9193 149.305 53.1086 149.661 53.5667L146.531 54.859ZM148.32 57.7378C149.423 57.7378 150.625 57.2311 151.222 56.1282L150.321 55.4552C149.84 56.2408 149.054 56.5965 148.317 56.5965C147.785 56.5965 147.227 56.3687 146.871 55.9132L151.117 54.1629C150.85 52.515 149.609 51.7805 148.353 51.7805C146.452 51.7805 145.31 53.2519 145.31 54.7592C145.31 56.2664 146.349 57.7378 148.315 57.7378M139.041 54.7592C139.041 53.7586 139.827 52.9218 140.827 52.9218C141.828 52.9218 142.613 53.7586 142.613 54.7592C142.613 55.7597 141.815 56.5965 140.827 56.5965C139.839 56.5965 139.041 55.7469 139.041 54.7592ZM140.827 57.7506C141.372 57.7506 141.879 57.6124 142.321 57.3565V57.6482H143.601V55.9235C143.752 55.5678 143.842 55.1763 143.842 54.7566C143.842 54.3369 143.752 53.9454 143.601 53.5897V49.0783H142.321V52.1593C141.879 51.9059 141.372 51.7652 140.827 51.7652C139.166 51.7652 137.81 53.0958 137.81 54.7566C137.81 56.4174 139.166 57.748 140.827 57.748" fill="#231F20"/>
<path d="M157.483 42.6911V42.6527C157.483 41.4244 158.384 40.7514 159.282 40.7514C159.789 40.7514 160.257 40.9408 160.613 41.3988L157.483 42.6911ZM159.269 45.5699C160.372 45.5699 161.575 45.0633 162.171 43.9604L161.271 43.2873C160.789 44.0729 160.004 44.4286 159.267 44.4286C158.735 44.4286 158.177 44.2009 157.821 43.7454L162.066 41.9951C161.8 40.3471 160.559 39.6127 159.303 39.6127C157.401 39.6127 156.26 41.0841 156.26 42.5913C156.26 44.0985 157.299 45.5699 159.264 45.5699M153.2 45.4804H154.479V36.913H153.2V45.4804ZM149.637 45.4804H150.917V36.913H149.637V45.4804ZM145.758 38.6352H147.672V36.7211H145.758V38.6352ZM146.075 45.4548H147.355V39.7253H146.075V45.4548ZM140.586 45.442H141.526L144.745 37.4325L143.54 36.9514L141.055 43.3027L138.57 36.9514L137.365 37.4325L140.584 45.442H140.586Z" fill="#231F20"/>
<path d="M176.256 31.4369C176.256 30.4748 177.054 29.638 178.029 29.638C179.004 29.638 179.803 30.3724 179.803 31.4369C179.803 32.5014 178.991 33.2359 178.029 33.2359C177.067 33.2359 176.256 32.4119 176.256 31.4369ZM178.029 34.4155C178.587 34.4155 179.107 34.2646 179.562 33.9984V34.2902H180.841V32.5168C180.969 32.1867 181.044 31.8208 181.044 31.4395C181.044 31.0582 180.967 30.7051 180.841 30.3622V28.5888H179.562V28.8805C179.107 28.6144 178.587 28.4634 178.029 28.4634C176.368 28.4634 175.012 29.7941 175.012 31.442C175.012 33.09 176.368 34.4207 178.029 34.4207M172.21 34.326H173.49V25.7586H172.21V34.326ZM162.166 31.5367V31.4983C162.166 30.27 163.067 29.597 163.965 29.597C164.472 29.597 164.94 29.7864 165.296 30.2444L162.166 31.5367ZM163.952 34.4155C165.055 34.4155 166.258 33.9089 166.854 32.806L165.953 32.133C165.472 32.9186 164.687 33.2742 163.95 33.2742C163.418 33.2742 162.86 33.0465 162.504 32.591L166.749 30.8407C166.483 29.1927 165.242 28.4583 163.986 28.4583C162.084 28.4583 160.943 29.9297 160.943 31.4369C160.943 32.9441 161.982 34.4155 163.947 34.4155M154.61 31.4369C154.61 30.4364 155.395 29.5996 156.396 29.5996C157.396 29.5996 158.182 30.4364 158.182 31.4369C158.182 32.4375 157.384 33.2742 156.396 33.2742C155.408 33.2742 154.61 32.4247 154.61 31.4369ZM156.398 34.4283C156.943 34.4283 157.45 34.2902 157.893 34.0343V34.326H159.172V32.6012C159.323 32.2455 159.413 31.854 159.413 31.4344C159.413 31.0147 159.323 30.6232 159.172 30.2675V25.756H157.893V28.837C157.45 28.5837 156.943 28.4429 156.398 28.4429C154.738 28.4429 153.381 29.7736 153.381 31.4344C153.381 33.0951 154.738 34.4258 156.398 34.4258" fill="#231F20"/>
<path d="M178.942 22.7544C180.058 22.7544 181.225 22.2093 181.225 21.0041C181.225 20.1417 180.654 19.5711 179.349 19.2665C178.131 18.962 177.967 18.7215 177.967 18.4426C177.967 18.0485 178.384 17.8591 178.855 17.8591C179.439 17.8591 180.048 18.138 180.452 18.6191L181.199 17.7823C180.629 17.1477 179.869 16.7946 178.881 16.7946C177.714 16.7946 176.726 17.5034 176.726 18.5193C176.726 19.4687 177.448 19.9395 178.564 20.2441C179.641 20.5358 179.971 20.6381 179.971 21.0041C179.971 21.4468 179.503 21.6387 179.032 21.6387C178.323 21.6387 177.752 21.2574 177.259 20.6637L176.409 21.4365C177.031 22.3373 177.955 22.7544 178.945 22.7544M170.5 19.8756V19.8372C170.5 18.6089 171.401 17.9359 172.299 17.9359C172.806 17.9359 173.274 18.1252 173.63 18.5833L170.5 19.8756ZM172.286 22.7544C173.389 22.7544 174.592 22.2477 175.188 21.1448L174.288 20.4718C173.807 21.2574 173.021 21.6131 172.284 21.6131C171.752 21.6131 171.194 21.3854 170.838 20.9299L175.083 19.1795C174.817 17.5316 173.576 16.7971 172.32 16.7971C170.418 16.7971 169.277 18.2685 169.277 19.7758C169.277 21.283 170.316 22.7544 172.281 22.7544M163.299 19.8756V19.8372C163.299 18.6089 164.2 17.9359 165.098 17.9359C165.605 17.9359 166.073 18.1252 166.429 18.5833L163.299 19.8756ZM163.148 15.3769L163.578 16.4159L166.708 15.1236L166.278 14.0847L163.148 15.3769ZM165.088 22.7544C166.191 22.7544 167.394 22.2477 167.99 21.1448L167.089 20.4718C166.608 21.2574 165.823 21.6131 165.086 21.6131C164.553 21.6131 163.995 21.3854 163.64 20.9299L167.885 19.1795C167.619 17.5316 166.378 16.7971 165.121 16.7971C163.22 16.7971 162.079 18.2685 162.079 19.7758C162.079 21.283 163.118 22.7544 165.083 22.7544M158.458 22.7544C159.574 22.7544 160.74 22.2093 160.74 21.0041C160.74 20.1417 160.17 19.5711 158.865 19.2665C157.647 18.962 157.483 18.7215 157.483 18.4426C157.483 18.0485 157.9 17.8591 158.371 17.8591C158.954 17.8591 159.563 18.138 159.968 18.6191L160.715 17.7823C160.144 17.1477 159.384 16.7946 158.396 16.7946C157.23 16.7946 156.242 17.5034 156.242 18.5193C156.242 19.4687 156.963 19.9395 158.079 20.2441C159.156 20.5358 159.487 20.6381 159.487 21.0041C159.487 21.4468 159.018 21.6387 158.547 21.6387C157.839 21.6387 157.268 21.2574 156.774 20.6637L155.925 21.4365C156.546 22.3373 157.47 22.7544 158.46 22.7544M148.852 16.9225V19.7732C148.852 21.7897 150.233 22.7518 151.602 22.7518C152.972 22.7518 154.341 21.7897 154.341 19.7732V16.9225H153.061V19.85C153.061 20.9913 152.378 21.4851 151.654 21.4851C150.894 21.4851 150.134 20.9401 150.134 19.85V16.9225H148.854H148.852ZM145.704 14.2356L142.508 19.3024L139.312 14.2356H138.296V22.6264H139.601V16.8458L142.124 20.8633H142.897L145.42 16.833V22.6264H146.725V14.2356H145.707H145.704Z" fill="#231F20"/>
<path d="M109.539 14.3661H94.8379L102.177 25.1035L109.539 14.3661Z" fill="#231F20"/>
<path d="M130.09 48.4845C127.981 48.4845 125.778 47.4072 124.421 45.2756L125.967 43.9168C127.09 45.534 128.685 46.3299 130.138 46.3299C131.448 46.3299 132.646 45.534 132.646 44.1522C132.646 42.6987 131.359 42.1153 128.664 41.0584C126.346 40.1679 125.128 38.6223 125.128 36.959C125.128 34.2183 127.377 32.5525 129.882 32.5525C130.827 32.5525 131.812 32.7853 132.728 33.251V14.3634H128.201V22.0761C128.201 26.5056 125.248 28.8471 121.688 28.8471C118.129 28.8471 115.222 26.4826 115.222 22.0761V14.3634H111.588V32.8007H109.073V19.2971L102.957 28.1869H101.401L95.2852 19.2459V32.8007H92.7697V14.3634H89.2998V57.6814H132.728V47.8166C131.937 48.2568 131.011 48.4819 130.092 48.4819L130.09 48.4845ZM96.36 50.9411C94.2514 50.9411 92.0481 49.8638 90.6919 47.7322L92.2375 46.3734C93.3609 47.9906 94.9551 48.7865 96.4086 48.7865C97.7188 48.7865 98.9164 47.9906 98.9164 46.6088C98.9164 45.1553 97.6292 44.5719 94.9346 43.515C92.6162 42.6245 91.3956 41.0789 91.3956 39.4156C91.3956 36.6749 93.6449 35.009 96.1501 35.009C97.8134 35.009 99.6175 35.7332 100.928 37.1867L99.4972 38.7093C98.5837 37.7497 97.3887 37.1637 96.1706 37.1637C94.8348 37.1637 93.6628 37.9135 93.6628 39.2236C93.6628 40.5338 94.8809 41.2171 96.6159 41.8696C99.661 43.0186 101.184 44.2341 101.184 46.509C101.184 49.4364 98.7475 50.9385 96.3574 50.9385L96.36 50.9411ZM109.94 34.3744L110.69 36.1529L105.045 38.4943L104.295 36.7159L109.94 34.3744ZM112.133 54.8179H102.972V39.3797L111.898 39.3567V41.4167H105.15V45.9383L111.43 45.9153V47.9753H105.15V52.7784L112.131 52.7554V54.8154L112.133 54.8179ZM123.784 48.2593H114.623V32.8211L123.549 32.7981V34.8581H116.801V39.3797L123.081 39.3567V41.4167H116.801V46.2198L123.782 46.1968V48.2568L123.784 48.2593Z" fill="#231F20"/>
<path d="M127.395 36.7724C127.395 38.0365 128.616 38.7632 130.348 39.4183C131.287 39.7715 132.078 40.1323 132.725 40.5289V35.7948C131.896 35.1167 130.909 34.7098 129.9 34.7098C128.565 34.7098 127.393 35.4596 127.393 36.7698L127.395 36.7724Z" fill="#231F20"/>
<path d="M121.684 26.7873C124.284 26.7873 126.019 24.9832 126.019 21.938V14.3661H117.397V21.938C117.397 24.9832 119.109 26.7873 121.684 26.7873Z" fill="#231F20"/>
</svg>
